<svg width="20" height="20" viewBox="0 0 20 20" fill="none" xmlns="http://www.w3.org/2000/svg">
<path d="M15.3529 0C15.7199 0 16.0214 0.279947 16.0556 0.637901L16.0588 0.705882L16.0595 1.208C16.9758 1.27193 17.4353 1.43208 17.8976 1.67931C18.5111 2.00742 18.9926 2.4889 19.3207 3.10241C19.6488 3.71592 19.8235 4.32445 19.8235 6.00261V15.1739C19.8235 16.852 19.6488 17.4606 19.3207 18.0741C18.9926 18.6876 18.5111 19.1691 17.8976 19.4972C17.2841 19.8253 16.6755 20 14.9974 20H5.82614C4.14798 20 3.53944 19.8253 2.92594 19.4972C2.31243 19.1691 1.83095 18.6876 1.50284 18.0741C1.17473 17.4606 1 16.852 1 15.1739V6.00261C1 4.32445 1.17473 3.71592 1.50284 3.10241C1.83095 2.4889 2.31243 2.00742 2.92594 1.67931C3.3883 1.43203 3.84784 1.27187 4.76453 1.20797L4.76471 0.705882C4.76471 0.316034 5.08074 0 5.47059 0C5.8375 0 6.13903 0.279947 6.17324 0.637901L6.17647 0.705882V1.17647H14.6471V0.705882C14.6471 0.316034 14.9631 0 15.3529 0ZM18.4118 7.29412H2.41176L2.41216 15.322C2.41873 16.5256 2.50876 16.9614 2.74775 17.4083C2.94428 17.7758 3.22424 18.0557 3.59172 18.2522C4.05647 18.5008 4.50926 18.5882 5.82614 18.5882H14.9974C16.3143 18.5882 16.7671 18.5008 17.2318 18.2522C17.5993 18.0557 17.8792 17.7758 18.0758 17.4083C18.3243 16.9435 18.4118 16.4907 18.4118 15.1739V7.29412ZM6.04379 14.3529C6.25356 14.3529 6.32963 14.3748 6.40632 14.4158C6.483 14.4568 6.54319 14.517 6.5842 14.5937C6.62522 14.6704 6.64706 14.7464 6.64706 14.9562V15.632C6.64706 15.8418 6.62522 15.9179 6.5842 15.9946C6.54319 16.0712 6.483 16.1314 6.40632 16.1724C6.32963 16.2135 6.25356 16.2353 6.04379 16.2353H5.36797C5.1582 16.2353 5.08214 16.2135 5.00545 16.1724C4.92876 16.1314 4.86857 16.0712 4.82756 15.9946C4.78655 15.9179 4.76471 15.8418 4.76471 15.632V14.9562C4.76471 14.7464 4.78655 14.6704 4.82756 14.5937C4.86857 14.517 4.92876 14.4568 5.00545 14.4158C5.08214 14.3748 5.1582 14.3529 5.36797 14.3529H6.04379ZM10.7497 14.3529C10.9594 14.3529 11.0355 14.3748 11.1122 14.4158C11.1889 14.4568 11.2491 14.517 11.2901 14.5937C11.3311 14.6704 11.3529 14.7464 11.3529 14.9562V15.632C11.3529 15.8418 11.3311 15.9179 11.2901 15.9946C11.2491 16.0712 11.1889 16.1314 11.1122 16.1724C11.0355 16.2135 10.9594 16.2353 10.7497 16.2353H10.0739C9.86409 16.2353 9.78802 16.2135 9.71133 16.1724C9.63464 16.1314 9.57446 16.0712 9.53344 15.9946C9.49243 15.9179 9.47059 15.8418 9.47059 15.632V14.9562C9.47059 14.7464 9.49243 14.6704 9.53344 14.5937C9.57446 14.517 9.63464 14.4568 9.71133 14.4158C9.78802 14.3748 9.86409 14.3529 10.0739 14.3529H10.7497ZM15.4556 14.3529C15.6653 14.3529 15.7414 14.3748 15.8181 14.4158C15.8948 14.4568 15.955 14.517 15.996 14.5937C16.037 14.6704 16.0588 14.7464 16.0588 14.9562V15.632C16.0588 15.8418 16.037 15.9179 15.996 15.9946C15.955 16.0712 15.8948 16.1314 15.8181 16.1724C15.7414 16.2135 15.6653 16.2353 15.4556 16.2353H14.7797C14.57 16.2353 14.4939 16.2135 14.4172 16.1724C14.3405 16.1314 14.2803 16.0712 14.2393 15.9946C14.1983 15.9179 14.1765 15.8418 14.1765 15.632V14.9562C14.1765 14.7464 14.1983 14.6704 14.2393 14.5937C14.2803 14.517 14.3405 14.4568 14.4172 14.4158C14.4939 14.3748 14.57 14.3529 14.7797 14.3529H15.4556ZM6.04379 9.64706C6.25356 9.64706 6.32963 9.6689 6.40632 9.70991C6.483 9.75093 6.54319 9.81111 6.5842 9.8878C6.62522 9.96449 6.64706 10.0406 6.64706 10.2503V10.9261C6.64706 11.1359 6.62522 11.212 6.5842 11.2887C6.54319 11.3654 6.483 11.4255 6.40632 11.4666C6.32963 11.5076 6.25356 11.5294 6.04379 11.5294H5.36797C5.1582 11.5294 5.08214 11.5076 5.00545 11.4666C4.92876 11.4255 4.86857 11.3654 4.82756 11.2887C4.78655 11.212 4.76471 11.1359 4.76471 10.9261V10.2503C4.76471 10.0406 4.78655 9.96449 4.82756 9.8878C4.86857 9.81111 4.92876 9.75093 5.00545 9.70991C5.08214 9.6689 5.1582 9.64706 5.36797 9.64706H6.04379ZM10.7497 9.64706C10.9594 9.64706 11.0355 9.6689 11.1122 9.70991C11.1889 9.75093 11.2491 9.81111 11.2901 9.8878C11.3311 9.96449 11.3529 10.0406 11.3529 10.2503V10.9261C11.3529 11.1359 11.3311 11.212 11.2901 11.2887C11.2491 11.3654 11.1889 11.4255 11.1122 11.4666C11.0355 11.5076 10.9594 11.5294 10.7497 11.5294H10.0739C9.86409 11.5294 9.78802 11.5076 9.71133 11.4666C9.63464 11.4255 9.57446 11.3654 9.53344 11.2887C9.49243 11.212 9.47059 11.1359 9.47059 10.9261V10.2503C9.47059 10.0406 9.49243 9.96449 9.53344 9.8878C9.57446 9.81111 9.63464 9.75093 9.71133 9.70991C9.78802 9.6689 9.86409 9.64706 10.0739 9.64706H10.7497ZM15.4556 9.64706C15.6653 9.64706 15.7414 9.6689 15.8181 9.70991C15.8948 9.75093 15.955 9.81111 15.996 9.8878C16.037 9.96449 16.0588 10.0406 16.0588 10.2503V10.9261C16.0588 11.1359 16.037 11.212 15.996 11.2887C15.955 11.3654 15.8948 11.4255 15.8181 11.4666C15.7414 11.5076 15.6653 11.5294 15.4556 11.5294H14.7797C14.57 11.5294 14.4939 11.5076 14.4172 11.4666C14.3405 11.4255 14.2803 11.3654 14.2393 11.2887C14.1983 11.212 14.1765 11.1359 14.1765 10.9261V10.2503C14.1765 10.0406 14.1983 9.96449 14.2393 9.8878C14.2803 9.81111 14.3405 9.75093 14.4172 9.70991C14.4939 9.6689 14.57 9.64706 14.7797 9.64706H15.4556ZM14.6471 2.58824H6.17647V2.82353C6.17647 3.21338 5.86044 3.52941 5.47059 3.52941C5.10367 3.52941 4.80214 3.24946 4.76794 2.89151L4.76471 2.82353L4.76437 2.62015C4.2059 2.66448 3.90147 2.75857 3.59172 2.92422C3.22424 3.12075 2.94428 3.40071 2.74775 3.76819C2.50876 4.21507 2.41873 4.65088 2.41216 5.85444L2.41176 5.88235H18.4113L18.4114 5.85444C18.4048 4.65088 18.3148 4.21507 18.0758 3.76819C17.8792 3.40071 17.5993 3.12075 17.2318 2.92422C16.9221 2.75861 16.6178 2.66453 16.0596 2.62018L16.0588 2.82353C16.0588 3.21338 15.7428 3.52941 15.3529 3.52941C14.986 3.52941 14.6845 3.24946 14.6503 2.89151L14.6471 2.82353V2.58824Z" fill="#7C7C7C"/>
</svg>
