<svg width="20" height="20" viewBox="0 0 20 20" fill="none" xmlns="http://www.w3.org/2000/svg">
<path d="M9.59686 10.1449C7.06443 10.1449 5.02441 8.10488 5.02441 5.57244C5.02441 3.04001 7.06443 1 9.59686 1C12.1293 1 14.1693 3.04001 14.1693 5.57244C14.1693 8.10488 12.1293 10.1449 9.59686 10.1449ZM9.59686 2.40691C7.83823 2.40691 6.43132 3.81381 6.43132 5.57244C6.43132 7.33108 7.83823 8.73798 9.59686 8.73798C11.3555 8.73798 12.7624 7.33108 12.7624 5.57244C12.7624 3.81381 11.3555 2.40691 9.59686 2.40691Z" fill="#1D1D1B"/>
<path d="M3.40677 15.7019V18.7383C3.40677 19.0869 2 19.0869 2 18.7383V15.7019C2 12.9232 5.41168 10.7778 9.73798 10.7778C14.0643 10.7778 17.476 12.9232 17.476 15.7019V18.7383C17.476 19.0869 16.0692 19.0869 16.0692 18.7383V15.7019C16.0692 13.8026 13.1849 12.1846 9.73798 12.1846C6.2911 12.1846 3.40677 13.8026 3.40677 15.7019Z" fill="#1D1D1B"/>
</svg>
