<svg width="20" height="20" viewBox="0 0 20 20" fill="none" xmlns="http://www.w3.org/2000/svg">
<path d="M20.0004 3.84617V7.69242C20.0004 8.11805 19.656 8.46117 19.2316 8.46117C18.806 8.46117 18.4629 8.11742 18.4629 7.69242V5.68617L12.8879 12.0455C12.6141 12.3543 12.1504 12.3949 11.8285 12.1387L8.52035 9.49117L1.3141 16.6974C1.16348 16.848 0.967226 16.923 0.770351 16.923C0.573476 16.923 0.376602 16.848 0.225977 16.6974C-0.0740234 16.398 -0.0740234 15.9105 0.225977 15.6105L7.91785 7.91805C8.19723 7.64055 8.63785 7.61805 8.9441 7.86055L12.2147 10.478L17.3566 4.61492H15.386C14.9604 4.61492 14.6179 4.26992 14.6179 3.84555C14.6179 3.41992 14.9622 3.07617 15.386 3.07617H19.2328C19.656 3.0768 20.0004 3.42117 20.0004 3.84617Z" fill="#1D1D1B"/>
</svg>
