<svg width="14" height="18" viewBox="0 0 14 18" fill="none" xmlns="http://www.w3.org/2000/svg">
<path d="M6.16721 16.5002V3.51183L1.75638 7.92266C1.43096 8.24808 0.903464 8.24808 0.578047 7.92266C0.25263 7.59725 0.25263 7.06954 0.578047 6.74412L6.41138 0.910788C6.7368 0.585371 7.2645 0.585371 7.58971 0.910788L13.423 6.74412C13.5858 6.90683 13.6672 7.12016 13.6672 7.3335C13.6672 7.54662 13.5858 7.75995 13.423 7.92266C13.0976 8.24808 12.5699 8.24808 12.2447 7.92266L7.83388 3.51183V16.5002C7.83388 16.9602 7.46075 17.3335 7.00055 17.3335C6.54034 17.3335 6.16721 16.9604 6.16721 16.5002Z" fill="#CACACA"/>
</svg>
