<svg width="14" height="18" viewBox="0 0 14 18" fill="none" xmlns="http://www.w3.org/2000/svg">
<path d="M6.16721 1.50008V14.4884L1.75638 10.0776C1.43096 9.75216 0.903464 9.75216 0.578047 10.0776C0.25263 10.403 0.25263 10.9307 0.578047 11.2561L6.41138 17.0895C6.7368 17.4149 7.2645 17.4149 7.58971 17.0895L13.423 11.2561C13.5858 11.0934 13.6672 10.8801 13.6672 10.6667C13.6672 10.4536 13.5858 10.2403 13.423 10.0776C13.0976 9.75216 12.5699 9.75216 12.2447 10.0776L7.83388 14.4884V1.50008C7.83388 1.04008 7.46075 0.666748 7.00055 0.666748C6.54034 0.666748 6.16721 1.03987 6.16721 1.50008Z" fill="#1D1D1B"/>
</svg>
