<svg width="20" height="20" viewBox="0 0 20 20" fill="none" xmlns="http://www.w3.org/2000/svg">
<path d="M9.8064 0C14.1178 0 17.6128 3.49504 17.6128 7.8064C17.6128 10.8595 15.7437 14.5599 12.047 18.9565C11.9386 19.0854 11.8193 19.2048 11.6903 19.3132C10.4529 20.3536 8.60624 20.1939 7.56576 18.9565C3.86909 14.5599 2 10.8595 2 7.8064C2 3.49504 5.49504 0 9.8064 0ZM9.8064 1.4637C6.30342 1.4637 3.4637 4.30342 3.4637 7.8064C3.4637 10.4383 5.19065 13.8573 8.68608 18.0145C9.20632 18.6332 10.1296 18.7131 10.7484 18.1929C10.8128 18.1386 10.8725 18.079 10.9267 18.0145C14.4221 13.8573 16.1491 10.4383 16.1491 7.8064C16.1491 4.30342 13.3094 1.4637 9.8064 1.4637ZM9.8064 4.3911C11.6921 4.3911 13.2217 5.92074 13.2217 7.8064C13.2217 9.69206 11.6921 11.2217 9.8064 11.2217C7.92074 11.2217 6.3911 9.69206 6.3911 7.8064C6.3911 5.92074 7.92074 4.3911 9.8064 4.3911ZM9.8064 5.8548C8.72911 5.8548 7.8548 6.72911 7.8548 7.8064C7.8548 8.88368 8.72911 9.758 9.8064 9.758C10.8837 9.758 11.758 8.88368 11.758 7.8064C11.758 6.72911 10.8837 5.8548 9.8064 5.8548Z" fill="#1D1D1B"/>
</svg>
