<svg width="20" height="20" viewBox="0 0 20 20" fill="none" xmlns="http://www.w3.org/2000/svg">
<path d="M19.1663 10C19.1663 11.813 18.6287 13.5853 17.6215 15.0928C16.6142 16.6002 15.1826 17.7751 13.5076 18.4689C11.8326 19.1627 9.98951 19.3443 8.21135 18.9906C6.43319 18.6369 4.79985 17.7638 3.51787 16.4818C2.23589 15.1999 1.36284 13.5665 1.00915 11.7884C0.655449 10.0102 0.83698 8.16709 1.53078 6.4921C2.22459 4.81711 3.3995 3.38547 4.90695 2.37822C6.4144 1.37098 8.18668 0.833362 9.99968 0.833362C11.7354 0.827567 13.4364 1.31919 14.9013 2.25003L16.0772 1.0742C16.1939 0.957485 16.3427 0.878076 16.5046 0.846042C16.6666 0.814008 16.8344 0.830791 16.9868 0.894263C17.1392 0.957735 17.2693 1.06504 17.3606 1.20256C17.4519 1.34008 17.5003 1.50162 17.4997 1.6667V5.00003C17.4997 5.22104 17.4119 5.433 17.2556 5.58928C17.0993 5.74556 16.8874 5.83336 16.6663 5.83336H13.333C13.1682 5.83333 13.0071 5.78443 12.8701 5.69286C12.7331 5.60129 12.6263 5.47116 12.5633 5.31891C12.5002 5.16666 12.4837 4.99913 12.5159 4.8375C12.548 4.67588 12.6273 4.52741 12.7438 4.41086L13.683 3.4717C12.5608 2.83265 11.2911 2.49771 9.99968 2.50003C8.51632 2.50003 7.06627 2.9399 5.8329 3.76401C4.59953 4.58812 3.63824 5.75946 3.07058 7.1299C2.50292 8.50035 2.3544 10.0083 2.64379 11.4632C2.93318 12.9181 3.64748 14.2544 4.69638 15.3033C5.74527 16.3522 7.08164 17.0665 8.5365 17.3559C9.99136 17.6453 11.4994 17.4968 12.8698 16.9291C14.2402 16.3615 15.4116 15.4002 16.2357 14.1668C17.0598 12.9334 17.4997 11.4834 17.4997 10C17.4997 9.77901 17.5875 9.56705 17.7438 9.41077C17.9 9.25449 18.112 9.1667 18.333 9.1667C18.554 9.1667 18.766 9.25449 18.9223 9.41077C19.0785 9.56705 19.1663 9.77901 19.1663 10Z" fill="#1D1D1B"/>
</svg>
