<svg width="20" height="20" viewBox="0 0 20 20" fill="none" xmlns="http://www.w3.org/2000/svg">
<path d="M13.4555 1C14.9061 1 16.1707 1.9867 16.5234 3.39367L16.8982 4.89257H17.7867C18.1562 4.89257 18.4616 5.16714 18.5099 5.52338L18.5165 5.62242C18.5165 5.99192 18.2419 6.29728 17.8858 6.34561L17.7867 6.35228H17.2651L17.4675 7.15658C18.0989 7.54076 18.5205 8.23531 18.5205 9.02842V17.297C18.5205 18.2375 17.7581 19 16.8175 19H15.3538C14.4133 19 13.6508 18.2375 13.6508 17.297L13.6499 16.0837H5.8696L5.86968 17.297C5.86968 18.2375 5.10722 19 4.16668 19H2.703C1.76246 19 1 18.2375 1 17.297V9.02842C1 8.2355 1.42153 7.54095 2.05272 7.15673L2.25438 6.35228H1.72986C1.36035 6.35228 1.05499 6.07771 1.00667 5.72146L1 5.62242C1 5.25292 1.27457 4.94756 1.63082 4.89923L1.72986 4.89257H2.61833L2.99395 3.39564C3.34593 1.98771 4.61096 1 6.06222 1H13.4555ZM4.40989 16.0837H2.45874L2.45971 17.297C2.45971 17.4313 2.56864 17.5403 2.703 17.5403H4.16668C4.30104 17.5403 4.40996 17.4313 4.40996 17.297L4.40989 16.0837ZM17.0607 16.0837H15.1096L15.1105 17.297C15.1105 17.4313 15.2194 17.5403 15.3538 17.5403H16.8175C16.9519 17.5403 17.0608 17.4313 17.0608 17.297L17.0607 16.0837ZM16.331 8.29856H3.18957C2.78648 8.29856 2.45971 8.62534 2.45971 9.02842V14.624H17.0608V9.02842C17.0608 8.62534 16.734 8.29856 16.331 8.29856ZM8.0543 11.7046H11.462C11.8651 11.7046 12.1918 12.0313 12.1918 12.4344C12.1918 12.8039 11.9173 13.1093 11.561 13.1576L11.462 13.1643H8.0543C7.65121 13.1643 7.32444 12.8375 7.32444 12.4344C7.32444 12.0649 7.59902 11.7595 7.95524 11.7112L8.0543 11.7046H11.462H8.0543ZM14.624 9.75827C15.1613 9.75827 15.597 10.1939 15.597 10.7314C15.597 11.2688 15.1613 11.7045 14.624 11.7045C14.0865 11.7045 13.6508 11.2688 13.6508 10.7314C13.6508 10.1939 14.0865 9.75827 14.624 9.75827ZM4.89254 9.75827C5.42998 9.75827 5.86566 10.1939 5.86566 10.7314C5.86566 11.2688 5.42998 11.7045 4.89254 11.7045C4.3551 11.7045 3.91942 11.2688 3.91942 10.7314C3.91942 10.1939 4.3551 9.75827 4.89254 9.75827ZM13.4555 2.45971H6.06222C5.28077 2.45971 4.5996 2.99155 4.41007 3.74967L3.63778 6.83885H15.8822L15.1074 3.74862C14.9176 2.99101 14.2366 2.45971 13.4555 2.45971Z" fill="#1D1D1B"/>
</svg>
