<svg width="20" height="20" viewBox="0 0 20 20" fill="none" xmlns="http://www.w3.org/2000/svg">
<path d="M14.6527 11.0112C14.6173 10.9935 13.3038 10.3478 13.0738 10.2638C12.9765 10.2284 12.8748 10.1974 12.7687 10.1974C12.5918 10.1974 12.4414 10.2859 12.3264 10.4584C12.1937 10.653 11.8001 11.1173 11.6763 11.2544C11.6586 11.2721 11.6365 11.2942 11.6232 11.2942C11.6099 11.2942 11.4065 11.2102 11.349 11.1837C9.94261 10.5734 8.87234 9.10064 8.7264 8.85297C8.70428 8.81759 8.70428 8.7999 8.70428 8.7999C8.70871 8.78221 8.75736 8.73356 8.77947 8.70702C8.85023 8.63626 8.92984 8.54339 9.00502 8.45493C9.0404 8.41071 9.07578 8.37091 9.11116 8.3311C9.22173 8.20285 9.27038 8.10555 9.32345 7.99056L9.35441 7.93307C9.49151 7.65887 9.37652 7.43331 9.33672 7.35813C9.30576 7.29621 8.75293 5.96059 8.69102 5.81906C8.54949 5.47852 8.36374 5.32373 8.10281 5.32373C8.0807 5.32373 8.10281 5.32373 8.00109 5.32815C7.87726 5.33258 7.20502 5.42103 6.90871 5.60678C6.5947 5.80579 6.05957 6.43823 6.05957 7.5483C6.05957 8.54781 6.69642 9.49425 6.9662 9.85248C6.97505 9.86132 6.98389 9.87901 7.00158 9.90555C8.04532 11.4313 9.34998 12.5635 10.6679 13.0898C11.9372 13.5984 12.5387 13.6559 12.8836 13.6559C13.0296 13.6559 13.1446 13.6427 13.2419 13.6338L13.3082 13.6294C13.746 13.5896 14.7102 13.0898 14.9313 12.4795C15.1038 11.9974 15.148 11.4756 15.033 11.2854C14.9578 11.1571 14.8207 11.0908 14.6527 11.0112Z" fill="#40A86F"/>
<path d="M10.4909 0.666504C5.61718 0.666504 1.65011 4.60262 1.65011 9.44095C1.65011 11.0066 2.07026 12.5368 2.8619 13.8768L1.34495 18.3569C1.31841 18.441 1.3361 18.5338 1.39802 18.5957C1.44225 18.64 1.50416 18.6665 1.56608 18.6665C1.58819 18.6665 1.61473 18.6621 1.63684 18.6577L6.30711 17.1717C7.58524 17.8527 9.03143 18.2154 10.4909 18.2154C15.3646 18.2154 19.3317 14.2793 19.3317 9.44095C19.3317 4.60262 15.3646 0.666504 10.4909 0.666504ZM10.4909 16.3889C9.11546 16.3889 7.78425 15.9908 6.6388 15.239C6.599 15.2125 6.55477 15.1992 6.51054 15.1992C6.48843 15.1992 6.4619 15.2036 6.43978 15.208L4.10023 15.951L4.85649 13.722C4.88303 13.6513 4.86976 13.5717 4.82553 13.5097C3.95428 12.3201 3.49433 10.9093 3.49433 9.43653C3.49433 5.60655 6.63438 2.48862 10.4953 2.48862C14.3562 2.48862 17.4963 5.60655 17.4963 9.43653C17.4919 13.2709 14.3518 16.3889 10.4909 16.3889Z" fill="#40A86F"/>
</svg>
